<?xml version="1.0" encoding="UTF-8"?>
<!DOCTYPE svg PUBLIC "-//W3C//DTD SVG 1.1//EN" "http://www.w3.org/Graphics/SVG/1.1/DTD/svg11.dtd">
<svg version="1.1" xmlns="http://www.w3.org/2000/svg" xmlns:xlink="http://www.w3.org/1999/xlink" x="0" y="0" width="24" height="24" viewBox="0, 0, 24, 24">
  <g id="Layer_1">
    <g>
      <path d="M11.164,0.129 C10.253,0.375 9.475,0.819 8.848,1.443 C8.241,2.048 7.766,2.852 7.766,3.277 C7.766,3.4 7.681,3.693 7.567,3.929 C7.453,4.175 7.387,4.497 7.406,4.695 L7.434,5.045 L6.96,5.111 C6.523,5.168 6.428,5.234 5.754,5.934 C5.356,6.359 4.985,6.699 4.928,6.699 C4.881,6.699 4.748,6.605 4.634,6.491 L4.444,6.283 L4.444,6.614 C4.444,6.794 4.501,7.03 4.577,7.125 C4.701,7.295 4.663,7.342 4.131,7.702 C3.41,8.184 2.451,9.176 1.863,10.056 C1.246,10.991 0.525,12.485 0.658,12.57 C0.734,12.618 0.724,12.873 0.62,13.516 C0.155,16.21 0.174,18.781 0.658,21.022 C0.923,22.279 0.904,22.478 0.458,22.988 C0.24,23.225 0.05,23.556 0.022,23.735 C-0.016,23.972 -0.007,24.009 0.069,23.905 C0.126,23.83 0.174,23.697 0.174,23.612 C0.174,23.537 0.287,23.367 0.42,23.234 C0.99,22.705 1.047,22.26 0.743,20.776 C0.344,18.838 0.325,16.115 0.705,13.761 C0.79,13.232 0.866,12.788 0.885,12.769 C0.904,12.75 1.18,12.873 1.502,13.034 C2.3,13.44 3.847,13.941 4.881,14.13 L5.745,14.3 L5.432,15.482 C5.27,16.134 5.052,17.08 4.966,17.571 C4.767,18.696 4.663,21.797 4.815,22.081 C4.91,22.27 4.834,22.866 4.587,23.811 C4.539,24.019 4.549,24.019 4.691,23.764 C4.777,23.612 4.881,23.244 4.919,22.96 L4.976,22.44 L5.09,22.837 C5.185,23.159 5.185,23.3 5.071,23.612 L4.938,24 L5.811,24 L6.675,24 L6.39,23.82 C6.238,23.726 5.925,23.537 5.716,23.404 C5.46,23.253 5.308,23.074 5.28,22.922 C5.251,22.79 5.242,22.676 5.251,22.676 C5.261,22.676 5.46,22.743 5.688,22.828 C6.39,23.074 8.639,23.603 9.769,23.783 C10.623,23.915 11.392,23.953 13.413,23.953 C16.261,23.953 17.248,23.83 19.582,23.196 C20.209,23.026 20.731,22.894 20.74,22.903 C20.75,22.913 20.408,23.159 19.991,23.461 L19.222,24 L19.801,24 C20.342,24 20.399,23.981 20.522,23.735 C20.598,23.593 20.664,23.518 20.674,23.556 C20.674,23.603 20.626,23.716 20.579,23.82 C20.522,23.915 20.513,24 20.551,24 C20.693,24 21.633,21.807 21.832,21.041 C21.984,20.436 22.012,20.058 21.984,19.122 L21.955,17.959 L22.344,18.016 C22.961,18.101 23.54,17.798 23.806,17.24 C24.271,16.295 23.891,14.48 22.762,12.287 C21.993,10.784 21.689,10.339 21.348,10.188 C21.158,10.103 21.054,9.989 21.054,9.866 C21.054,9.46 20.702,9.252 20.029,9.252 C19.601,9.252 19.459,9.186 18.671,8.647 C17.732,8.014 17.162,7.702 16.602,7.503 L16.261,7.39 L16.783,7.267 C17.656,7.068 18.111,6.775 18.111,6.416 C18.111,6.378 17.846,6.028 17.532,5.65 C16.897,4.894 16.65,4.421 16.735,4.137 C16.773,4.033 16.745,3.882 16.678,3.807 C16.545,3.636 16.498,3.419 16.498,2.89 C16.498,2.596 16.422,2.445 16.052,2.058 C15.463,1.434 14.6,0.866 13.916,0.668 C13.613,0.583 13.366,0.46 13.366,0.403 C13.366,0.346 13.214,0.233 13.034,0.148 C12.635,-0.041 11.809,-0.051 11.164,0.129 z M12.958,0.29 C13.205,0.394 13.157,0.403 12.436,0.479 C11.268,0.592 10.13,1.112 9.959,1.623 C9.883,1.831 9.902,1.991 10.044,2.36 C10.149,2.615 10.234,2.918 10.234,3.022 C10.234,3.306 9.978,3.75 9.74,3.873 C9.532,3.986 9.532,3.986 9.693,3.759 C10.177,3.088 10.167,3.107 10.063,2.89 C9.997,2.776 9.854,2.568 9.74,2.426 C9.465,2.077 9.57,1.67 10.139,0.989 C10.462,0.602 10.671,0.432 10.993,0.328 C11.525,0.167 12.597,0.138 12.958,0.29 z M14.486,1.008 C14.809,1.178 15.359,1.585 15.71,1.916 C16.308,2.474 16.346,2.54 16.356,2.946 L16.375,3.391 L15.701,3.41 C15.331,3.419 14.932,3.428 14.818,3.428 C14.495,3.428 14.543,3.684 14.979,4.204 C15.188,4.459 15.359,4.752 15.359,4.865 C15.359,5.14 14.97,5.47 14.571,5.537 C14.268,5.584 14.192,5.546 13.935,5.281 C13.613,4.941 13.546,5.026 13.85,5.414 C14.011,5.612 14.125,5.66 14.476,5.66 C14.837,5.66 14.951,5.612 15.236,5.329 C15.558,5.007 15.577,4.913 15.416,4.516 C15.359,4.393 15.425,4.345 15.701,4.308 C15.891,4.27 16.156,4.156 16.28,4.043 C16.46,3.873 16.526,3.854 16.621,3.948 C16.707,4.043 16.678,4.109 16.479,4.289 C16.166,4.553 16.137,4.667 16.403,4.525 C16.564,4.44 16.612,4.459 16.688,4.667 C16.735,4.799 16.868,5.026 16.982,5.177 C17.096,5.338 17.162,5.527 17.134,5.612 C17.077,5.745 17.048,5.745 16.821,5.593 C16.583,5.442 16.564,5.442 16.441,5.603 C16.375,5.707 16.299,5.82 16.28,5.877 C16.261,5.934 16.147,5.905 16.004,5.811 C15.748,5.65 15.748,5.65 15.463,5.962 L15.179,6.274 L14.96,6.066 L14.752,5.849 L14.438,6.151 L14.125,6.454 L13.859,6.198 L13.594,5.943 L13.366,6.179 C13.081,6.482 13.043,6.473 12.597,6.132 L12.237,5.839 L12.056,6.198 C11.743,6.803 11.629,7.569 11.752,8.165 C11.809,8.448 11.895,8.704 11.933,8.723 C11.971,8.751 12.17,8.6 12.369,8.401 C12.578,8.193 12.768,8.023 12.806,8.023 C12.834,8.023 12.901,8.203 12.948,8.42 C12.996,8.637 13.081,8.827 13.129,8.836 C13.186,8.855 13.347,8.694 13.499,8.477 L13.784,8.089 L13.907,8.458 C13.973,8.656 14.059,8.893 14.087,8.959 C14.116,9.053 14.201,8.978 14.362,8.723 L14.59,8.354 L14.695,8.656 C14.828,9.016 14.941,9.053 15.027,8.779 C15.103,8.533 15.236,8.543 15.321,8.798 L15.387,9.016 L15.482,8.798 C15.606,8.533 15.682,8.533 15.815,8.827 C15.909,9.035 15.881,9.11 15.501,9.583 C15.065,10.112 15.027,10.264 15.435,9.885 L15.663,9.677 L15.596,9.961 C15.359,10.925 14.438,11.615 13.375,11.615 C11.022,11.606 8.174,9.271 7.909,7.134 C7.833,6.529 8.07,5.565 8.288,5.565 C8.364,5.565 8.431,5.518 8.431,5.47 C8.431,5.414 8.298,5.376 8.146,5.376 C7.557,5.376 7.301,4.393 7.766,3.92 C8.117,3.57 8.725,3.759 8.706,4.232 C8.706,4.478 8.706,4.478 8.62,4.26 C8.507,3.996 8.098,3.825 7.88,3.958 C7.795,4.005 7.766,4.052 7.833,4.052 C7.89,4.052 7.937,4.204 7.937,4.393 C7.937,4.572 7.966,4.752 7.994,4.78 C8.023,4.818 8.051,4.714 8.051,4.563 C8.051,4.156 8.184,3.996 8.345,4.185 C8.421,4.27 8.535,4.402 8.601,4.478 C8.658,4.544 8.715,4.676 8.715,4.761 C8.715,4.932 9.076,5.092 9.484,5.092 C9.75,5.092 9.759,5.083 9.759,4.61 C9.759,4.204 9.807,4.071 10.044,3.807 C10.433,3.362 10.49,2.956 10.234,2.379 C9.902,1.604 10.139,1.282 11.363,0.857 C11.895,0.677 12.142,0.649 12.939,0.677 C13.784,0.706 13.954,0.744 14.486,1.008 z M17.997,6.482 C17.96,6.709 17.438,6.983 16.707,7.163 C16.27,7.267 16.08,7.361 16.099,7.446 C16.118,7.522 16.099,7.645 16.071,7.72 C16.033,7.834 15.947,7.796 15.691,7.55 C15.492,7.361 15.312,7.267 15.226,7.295 C15.017,7.38 15.036,7.673 15.264,7.881 C15.53,8.118 15.501,8.193 15.15,8.24 C14.847,8.278 14.847,8.278 15.198,8.288 C15.577,8.307 15.577,8.307 15.492,8.533 C15.435,8.675 15.416,8.675 15.302,8.524 C15.188,8.363 15.179,8.363 15.036,8.543 C14.903,8.723 14.894,8.723 14.79,8.42 C14.723,8.259 14.647,8.118 14.619,8.118 C14.581,8.118 14.467,8.278 14.353,8.458 L14.154,8.808 L14.03,8.363 C13.964,8.127 13.878,7.928 13.84,7.928 C13.793,7.928 13.632,8.099 13.48,8.316 C13.167,8.732 13.129,8.723 13.034,8.184 C12.996,7.995 12.929,7.815 12.891,7.787 C12.853,7.758 12.635,7.938 12.417,8.174 C12.199,8.411 11.99,8.581 11.961,8.543 C11.923,8.505 11.895,8.108 11.895,7.664 C11.895,7.049 11.942,6.737 12.085,6.435 L12.274,6.028 L12.683,6.331 L13.091,6.633 L13.356,6.378 L13.613,6.132 L13.84,6.321 C14.116,6.558 14.116,6.558 14.457,6.283 L14.742,6.057 L14.96,6.255 L15.188,6.463 L15.463,6.132 L15.739,5.811 L16.023,5.971 C16.308,6.142 16.308,6.142 16.422,5.905 C16.545,5.631 16.612,5.612 16.906,5.764 C17.067,5.858 17.124,5.849 17.21,5.716 C17.295,5.574 17.352,5.603 17.665,5.943 C17.865,6.151 18.016,6.397 17.997,6.482 z M7.823,7.569 C7.861,7.796 7.89,8.032 7.89,8.089 C7.89,8.155 7.928,8.184 7.985,8.146 C8.042,8.108 8.061,8.146 8.023,8.25 C7.985,8.335 7.994,8.392 8.042,8.363 C8.146,8.297 8.26,8.571 8.174,8.704 C8.146,8.76 8.165,8.779 8.222,8.741 C8.269,8.713 8.402,8.827 8.516,8.987 C8.62,9.157 8.943,9.526 9.228,9.81 C9.513,10.093 9.731,10.358 9.712,10.396 C9.683,10.434 9.74,10.453 9.826,10.443 C9.911,10.443 10.044,10.538 10.111,10.67 C10.177,10.802 10.234,10.85 10.234,10.784 C10.234,10.717 10.281,10.689 10.329,10.717 C10.386,10.755 10.395,10.821 10.367,10.878 C10.329,10.935 10.338,10.954 10.395,10.925 C10.443,10.888 10.765,11.01 11.107,11.19 C12.645,12.003 14.22,11.984 15.036,11.152 C15.236,10.944 15.435,10.802 15.482,10.831 C15.539,10.859 15.549,10.84 15.511,10.784 C15.473,10.727 15.511,10.576 15.587,10.462 C15.663,10.339 15.758,10.056 15.796,9.819 C15.834,9.583 15.919,9.271 15.995,9.12 L16.137,8.855 L16.498,9.205 C16.707,9.403 16.849,9.602 16.821,9.649 C16.792,9.687 16.84,9.725 16.916,9.725 C16.991,9.725 17.086,9.772 17.124,9.838 C17.2,9.961 16.887,10.216 16.754,10.131 C16.697,10.103 16.688,10.112 16.716,10.169 C16.745,10.216 16.697,10.33 16.612,10.415 C16.356,10.651 16.261,10.802 16.261,10.973 C16.261,11.152 16.574,11.521 16.726,11.521 C16.783,11.521 17.048,12.06 17.305,12.722 C17.57,13.383 17.789,13.951 17.808,13.988 C17.827,14.026 17.722,14.036 17.57,14.007 C17.115,13.913 16.08,13.941 15.539,14.073 C15.255,14.14 14.258,14.565 13.318,15.028 C12.379,15.492 11.363,15.926 11.06,16.002 C10.471,16.153 8.801,16.229 8.459,16.115 C8.023,15.974 8.26,16.172 8.858,16.446 C9.323,16.664 9.664,16.749 10.224,16.787 C11.411,16.872 12.132,16.664 14.296,15.605 C16.337,14.603 16.545,14.518 17.115,14.367 C17.798,14.187 17.912,14.215 18.111,14.697 C18.396,15.34 18.453,15.633 18.292,15.539 C18.216,15.492 18.187,15.501 18.235,15.548 C18.282,15.596 18.368,15.633 18.425,15.633 C18.491,15.643 18.529,15.69 18.519,15.756 C18.472,15.955 20.086,15.851 20.56,15.614 C21.044,15.378 20.997,15.321 21.414,16.635 C21.898,18.148 22.012,19.301 21.803,20.587 C21.689,21.296 21.243,22.506 21.073,22.563 C20.997,22.582 20.978,22.535 21.006,22.421 C21.044,22.308 21.025,22.317 20.949,22.459 C20.778,22.771 18.586,23.348 16.308,23.669 C14.23,23.962 10.671,23.839 8.715,23.404 C8.231,23.291 8.174,23.253 7.89,22.78 C7.501,22.128 7.045,21.05 6.865,20.341 C6.627,19.387 6.409,17.656 6.4,16.626 C6.39,15.7 6.409,15.605 6.656,15.189 C6.941,14.697 7.482,12.324 7.482,11.587 C7.472,11.048 7.273,10.15 7.035,9.63 C6.931,9.394 6.817,9.091 6.779,8.94 C6.703,8.637 6.58,8.609 6.504,8.874 C6.476,8.978 6.494,9.044 6.532,9.016 C6.665,8.94 6.855,10.282 6.855,11.332 C6.865,12.391 6.751,12.967 6.371,13.714 C6.153,14.159 6.143,14.168 5.792,14.111 C4.416,13.922 2.575,13.421 2.708,13.27 C2.746,13.232 2.727,13.223 2.67,13.26 C2.603,13.298 2.489,13.289 2.413,13.251 C2.309,13.194 2.375,12.958 2.774,12.031 C3.533,10.282 4.274,9.28 5.536,8.307 C6.134,7.853 7.358,7.191 7.633,7.182 C7.69,7.172 7.776,7.352 7.823,7.569 z M17.039,7.834 C17.381,7.995 18.026,8.363 18.472,8.656 L19.288,9.195 L18.823,9.318 C18.557,9.384 18.292,9.422 18.225,9.394 C18.159,9.365 18.13,9.394 18.159,9.441 C18.273,9.621 17.95,9.536 17.77,9.328 C17.675,9.214 17.646,9.157 17.722,9.205 C17.808,9.252 17.836,9.243 17.798,9.176 C17.76,9.129 17.627,9.091 17.504,9.101 C17.333,9.12 17.134,8.987 16.726,8.581 C16.27,8.118 16.194,8.004 16.251,7.796 C16.28,7.664 16.337,7.55 16.356,7.55 C16.384,7.55 16.688,7.683 17.039,7.834 z M20.655,9.857 C20.759,9.961 20.683,9.989 20.228,10.027 C19.184,10.131 18.652,10.566 18.928,11.095 C19.004,11.247 19.041,11.436 19.013,11.53 C18.937,11.757 19.108,12.06 19.355,12.135 C19.507,12.183 19.535,12.249 19.488,12.466 C19.393,12.882 19.782,13.128 20.541,13.128 C21.215,13.128 21.158,13.062 21.319,14.036 L21.405,14.527 L20.617,14.565 C19.962,14.603 19.725,14.66 19.165,14.934 L18.51,15.255 L17.694,13.223 C17.248,12.107 16.878,11.114 16.878,11.029 C16.878,10.831 17.447,10.339 17.95,10.112 C18.33,9.942 18.871,9.781 19.44,9.687 C19.81,9.63 20.522,9.725 20.655,9.857 z M21.414,10.349 C21.689,10.528 21.946,10.944 22.696,12.428 C23.445,13.913 23.692,14.612 23.825,15.671 C23.948,16.654 23.825,17.193 23.417,17.581 C22.914,18.044 21.955,18.044 21.851,17.581 C21.822,17.448 21.652,16.891 21.462,16.361 L21.13,15.378 L21.329,15.17 C21.443,15.057 21.528,14.858 21.528,14.726 C21.528,14.508 21.557,14.499 21.908,14.527 C22.117,14.546 22.287,14.527 22.287,14.489 C22.287,14.442 22.136,14.404 21.946,14.395 C21.538,14.385 21.462,14.291 21.386,13.582 C21.348,13.279 21.272,13.034 21.215,13.024 C21.148,13.015 20.835,13.005 20.513,12.996 C19.896,12.977 19.63,12.844 19.63,12.551 C19.63,12.23 20.076,12.041 20.788,12.06 C21.167,12.069 21.414,12.041 21.386,11.984 C21.31,11.871 20.275,11.88 19.953,11.994 C19.345,12.23 18.899,11.682 19.355,11.275 C19.526,11.124 19.706,11.095 20.446,11.095 C21.395,11.095 21.614,11.01 20.911,10.897 C20.446,10.831 19.687,10.916 19.402,11.067 C19.279,11.133 19.193,11.124 19.089,11.02 C18.491,10.424 20.598,9.819 21.414,10.349 z M21.329,14.726 C21.879,15.076 19.459,15.926 18.719,15.643 C18.576,15.586 18.576,15.567 18.738,15.378 C19.174,14.886 20.902,14.452 21.329,14.726 z" fill="#000000"/>
      <path d="M13.708,3.343 L13.859,3.58 L12.759,3.58 C11.942,3.58 11.658,3.551 11.658,3.457 C11.658,3.306 11.468,3.58 11.468,3.74 C11.468,3.967 11.971,4.431 12.331,4.525 C13.309,4.79 14.315,3.939 13.803,3.268 C13.613,3.022 13.527,3.079 13.708,3.343 z" fill="#000000"/>
    </g>
  </g>
</svg>
